#!OML:ASF H:\Terrain\Walking\May29\JustinRory\Justin.ASF
:FULLY-SPECIFIED
:DEGREES
2288
root 8.37993 15.4264 27.5256 -240.193 -63.8372 248.398 
lowerback 23.0167 2.1405 -2.6512 
upperback 6.85817 1.75118 2.69629 
thorax -5.47231 0.575279 3.99306 
lowerneck -5.97827 -12.5114 -16.8399 
upperneck 16.3156 -19.5198 20.3341 
head 9.92553 -9.06108 7.30142 
rclavicle -1.59028e-15 -3.18055e-14 
rhumerus -36.5793 -49.8724 -21.694 
rradius 41.4757 
rwrist -73.8122 
rhand -11.3154 0.47221 
rfingers 7.12502 
rthumb 14.7166 -28.9854 
lclavicle -1.59028e-15 -3.18055e-14 
lhumerus -30.2328 20.6367 47.8411 
lradius 63.8065 
lwrist -0.603027 
lhand -9.53068 34.1266 
lfingers 7.12502 
lthumb 16.4356 63.4503 
rfemur -27.4096 -19.9398 16.5667 
rtibia 66.4838 
rfoot -8.57944 6.48036 
rtoes -36.9283 
lfemur -59.4201 9.10294 -18.6783 
ltibia 61.8046 
lfoot -0.817419 -23.4134 
ltoes 31.8956 
2289
root 8.43839 15.4899 27.5646 -241.699 -64.6154 250.365 
lowerback 23.1709 1.89845 -3.01952 
upperback 6.78815 1.3578 2.54093 
thorax -5.595 0.396671 4.14377 
lowerneck -5.63795 -12.4635 -16.6337 
upperneck 15.9261 -19.4761 20.4876 
head 9.71272 -9.05428 7.34468 
rclavicle 9.54166e-15 0.0 
rhumerus -38.1319 -49.2762 -22.1175 
rradius 42.6966 
rwrist -74.3021 
rhand -10.6677 1.43161 
rfingers 7.12502 
rthumb 15.3405 -27.9794 
lclavicle 9.54166e-15 0.0 
lhumerus -30.0173 20.1145 47.9317 
lradius 64.6884 
lwrist 0.394353 
lhand -8.78575 33.5963 
lfingers 7.12502 
lthumb 17.1527 62.8592 
rfemur -28.073 -21.3639 17.4545 
rtibia 68.9451 
rfoot -8.72884 8.85195 
rtoes -38.6927 
lfemur -59.7587 9.84739 -19.5682 
ltibia 61.0171 
lfoot 0.564851 -25.9883 
ltoes 25.4009 
2290
root 8.49463 15.5441 27.6069 -243.64 -65.2545 252.67 
lowerback 23.3639 1.68203 -3.06309 
upperback 6.84682 1.0582 2.47195 
thorax -5.59942 0.251032 4.17683 
lowerneck -5.49429 -12.4617 -16.8592 
upperneck 15.6169 -19.471 20.8203 
head 9.6454 -9.06141 7.50483 
rclavicle -4.77083e-15 -9.54166e-15 
rhumerus -39.7419 -48.7148 -22.3643 
rradius 44.1396 
rwrist -75.8222 
rhand -10.5181 2.37356 
rfingers 7.12502 
rthumb 15.4847 -27.0263 
lclavicle -4.77083e-15 -9.54166e-15 
lhumerus -29.3745 19.9374 48.3215 
lradius 65.2921 
lwrist 0.766617 
lhand -8.63488 33.588 
lfingers 7.12502 
lthumb 17.2979 62.8382 
rfemur -28.4085 -22.5291 18.3955 
rtibia 70.8228 
rfoot -8.45057 10.8073 
rtoes -41.5237 
lfemur -60.178 10.5275 -20.2173 
ltibia 60.6006 
lfoot 1.91882 -28.3086 
ltoes 16.0342 
2291
root 8.54078 15.5844 27.6487 -246.036 -66.1623 255.329 
lowerback 23.3809 1.45243 -3.14781 
upperback 7.09701 0.715647 2.27885 
thorax -5.30036 0.0707319 4.10739 
lowerneck -5.64321 -12.5497 -16.4638 
upperneck 15.3649 -19.5346 20.7454 
head 9.54876 -9.06629 7.38586 
rclavicle 1.59028e-14 1.27222e-14 
rhumerus -41.547 -48.4289 -22.5588 
rradius 45.621 
rwrist -76.8987 
rhand -10.3935 3.1429 
rfingers 7.12502 
rthumb 15.6047 -26.2476 
lclavicle 1.59028e-14 1.27222e-14 
lhumerus -28.1747 20.4269 48.9036 
lradius 65.5663 
lwrist 0.417551 
lhand -8.91642 33.6471 
lfingers 7.12502 
lthumb 17.0269 62.9209 
rfemur -28.303 -23.6846 18.8198 
rtibia 71.9793 
rfoot -7.96912 12.6311 
rtoes -43.8261 
lfemur -60.5891 10.8698 -20.9725 
ltibia 60.6368 
lfoot 2.15053 -29.6999 
ltoes 2.34639 
2292
root 8.58388 15.6132 27.6902 -248.383 -67.003 258.005 
lowerback 23.3424 1.2258 -3.32845 
upperback 7.22381 0.372681 2.09671 
thorax -5.10958 -0.0999355 4.10426 
lowerneck -5.63793 -12.6011 -16.1501 
upperneck 15.154 -19.5991 20.7694 
head 9.45848 -9.08375 7.32756 
rclavicle 2.8625e-14 2.22639e-14 
rhumerus -43.4194 -48.0593 -22.6249 
rradius 46.8966 
rwrist -77.3939 
rhand -9.56591 3.69386 
rfingers 7.12502 
rthumb 16.4016 -25.6327 
lclavicle 2.8625e-14 2.22639e-14 
lhumerus -27.1543 21.0944 49.4907 
lradius 65.8189 
lwrist 0.205127 
lhand -8.51454 33.2277 
lfingers 7.12502 
lthumb 17.4137 62.4676 
rfemur -27.9854 -24.351 19.1568 
rtibia 72.3389 
rfoot -7.15901 14.3767 
rtoes -43.9448 
lfemur -61.237 11.0375 -21.4582 
ltibia 61.2715 
lfoot 2.83558 -29.4106 
ltoes -6.04674 
2293
root 8.6255 15.6321 27.7269 -251.3 -67.5953 261.151 
lowerback 23.4555 0.96919 -3.42224 
upperback 7.27424 0.021705 2.08723 
thorax -5.07725 -0.269972 4.24414 
lowerneck -5.18531 -12.6193 -16.4078 
upperneck 14.7109 -19.6448 21.1516 
head 9.30925 -9.14057 7.51636 
rclavicle 2.54444e-14 3.18055e-14 
rhumerus -45.3034 -47.4715 -22.4711 
rradius 48.2005 
rwrist -78.3321 
rhand -8.33211 4.05801 
rfingers 7.12502 
rthumb 17.5893 -25.1663 
lclavicle 2.54444e-14 3.18055e-14 
lhumerus -26.4886 21.3469 49.9679 
lradius 66.08 
lwrist 0.158135 
lhand -7.64804 32.7524 
lfingers 7.12502 
lthumb 18.2475 61.9165 
rfemur -27.2008 -24.7186 19.667 
rtibia 71.9312 
rfoot -6.5437 15.4255 
rtoes -42.4292 
lfemur -61.9535 11.0688 -21.4601 
ltibia 62.619 
lfoot 2.8262 -28.3003 
ltoes -9.84415 
2294
root 8.66429 15.63 27.7569 -254.233 -67.8219 264.032 
lowerback 23.6597 0.750752 -3.44852 
upperback 7.47114 -0.277171 2.22017 
thorax -4.9333 -0.430133 4.48721 
lowerneck -4.93267 -12.5936 -16.9981 
upperneck 14.4121 -19.6385 21.7048 
head 9.29542 -9.16488 7.82239 
rclavicle 4.77083e-15 -1.27222e-14 
rhumerus -46.5621 -46.7903 -22.6976 
rradius 49.4971 
rwrist -79.3887 
rhand -7.32418 4.47109 
rfingers 7.12502 
rthumb 18.559 -24.6636 
lclavicle 4.77083e-15 -1.27222e-14 
lhumerus -26.0341 21.6081 50.3475 
lradius 66.4439 
lwrist -0.291109 
lhand -6.62977 32.4281 
lfingers 7.12502 
lthumb 19.2269 61.4977 
rfemur -25.9072 -24.7451 20.2808 
rtibia 70.8797 
rfoot -6.84808 15.5601 
rtoes -40.4981 
lfemur -62.531 11.132 -20.8226 
ltibia 64.6807 
lfoot -0.225118 -27.0522 
ltoes -17.5225 
2295
root 8.70128 15.6129 27.7917 -255.699 -68.3213 265.398 
lowerback 23.6776 0.773985 -3.86707 
upperback 7.70135 -0.366596 2.07312 
thorax -4.67811 -0.491569 4.58866 
lowerneck -4.98848 -12.6879 -16.7942 
upperneck 14.1862 -19.7704 21.8488 
head 9.2557 -9.21274 7.80706 
rclavicle 2.54444e-14 -3.49861e-14 
rhumerus -47.9383 -46.26 -22.9702 
rradius 50.6705 
rwrist -80.1165 
rhand -6.42727 5.08047 
rfingers 7.12502 
rthumb 19.4216 -23.9696 
lclavicle 2.54444e-14 -3.49861e-14 
lhumerus -25.3537 21.585 50.7287 
lradius 66.9437 
lwrist -0.672615 
lhand -6.17694 32.4257 
lfingers 7.12502 
lthumb 19.6623 61.4514 
rfemur -24.6044 -23.9954 20.2993 
rtibia 69.4005 
rfoot -8.6741 15.3363 
rtoes -38.4319 
lfemur -63.2447 11.376 -20.4053 
ltibia 67.3393 
lfoot -4.66687 -25.3884 
ltoes -26.5479 
2296
root 8.73475 15.6075 27.8421 -257.078 -68.9202 266.812 
lowerback 23.5378 0.803666 -4.21586 
upperback 7.87218 -0.422446 1.81567 
thorax -4.41414 -0.531007 4.51697 
lowerneck -4.81121 -12.8853 -16.6834 
upperneck 13.7324 -20.0688 22.1933 
head 9.16937 -9.35855 7.85577 
rclavicle -6.83819e-14 -9.22361e-14 
rhumerus -49.7255 -45.8402 -22.9343 
rradius 51.8524 
rwrist -80.6878 
rhand -5.23441 5.45247 
rfingers 7.12502 
rthumb 20.5682 -23.4779 
lclavicle -6.83819e-14 -9.22361e-14 
lhumerus -24.5347 20.9772 51.163 
lradius 67.4421 
lwrist -0.552579 
lhand -7.4623 33.0809 
lfingers 7.12502 
lthumb 18.4262 62.2282 
rfemur -23.2015 -22.672 20.0882 
rtibia 67.6695 
rfoot -11.8256 14.7671 
rtoes -37.0378 
lfemur -64.1547 11.5315 -20.0012 
ltibia 70.3817 
lfoot -7.73754 -23.8499 
ltoes -30.6745 
2297
root 8.76661 15.5908 27.8917 -259.18 -68.4997 268.869 
lowerback 23.5601 0.657545 -3.70198 
upperback 8.00088 -0.49401 2.01032 
thorax -4.28148 -0.574912 4.45065 
lowerneck -4.75082 -12.8293 -16.9587 
upperneck 13.6255 -19.9663 22.3294 
head 9.14817 -9.32196 7.97075 
rclavicle 4.29375e-14 1.27222e-14 
rhumerus -51.0794 -45.1796 -23.0823 
rradius 53.3233 
rwrist -81.6511 
rhand -4.4407 5.67978 
rfingers 7.12502 
rthumb 21.3307 -23.1662 
lclavicle 4.29375e-14 1.27222e-14 
lhumerus -24.1437 20.4869 51.6894 
lradius 67.9722 
lwrist -0.392267 
lhand -9.34329 33.9496 
lfingers 7.12502 
lthumb 16.616 63.2583 
rfemur -21.5976 -21.1981 20.896 
rtibia 65.9651 
rfoot -15.1633 13.8595 
rtoes -38.5654 
lfemur -65.12 11.7466 -18.184 
ltibia 73.7666 
lfoot -9.59822 -22.9176 
ltoes -30.498 
2298
root 8.80432 15.5453 27.9295 -259.851 -68.8973 269.03 
lowerback 23.908 0.880505 -4.34078 
upperback 8.16769 -0.385301 1.98472 
thorax -4.27502 -0.540596 4.76813 
lowerneck -4.88242 -12.7832 -17.1628 
upperneck 13.8781 -19.9001 22.2868 
head 9.26041 -9.28366 7.99957 
rclavicle 3.18055e-15 -2.22639e-14 
rhumerus -52.3841 -44.771 -23.2722 
rradius 54.9543 
rwrist -82.5935 
rhand -4.14029 6.09112 
rfingers 7.12502 
rthumb 21.6192 -22.722 
lclavicle 3.18055e-15 -2.22639e-14 
lhumerus -23.8403 20.1927 52.17 
lradius 68.4147 
lwrist -0.6994 
lhand -9.40329 33.7346 
lfingers 7.12502 
lthumb 16.5582 63.0481 
rfemur -20.102 -19.7292 20.4508 
rtibia 64.663 
rfoot -18.1322 13.4898 
rtoes -41.6814 
lfemur -65.5923 12.1873 -16.907 
ltibia 77.3004 
lfoot -11.1882 -22.0933 
ltoes -29.5645 
2299
root 8.83472 15.4934 27.9732 -260.014 -69.5841 268.936 
lowerback 23.892 1.12365 -5.11138 
upperback 8.2993 -0.268777 1.74263 
thorax -4.12864 -0.499627 4.91421 
lowerneck -5.0766 -12.8395 -17.007 
upperneck 14.082 -19.9969 22.2083 
head 9.36043 -9.30596 7.91983 
rclavicle 1.74931e-14 2.22639e-14 
rhumerus -53.981 -44.7124 -23.2274 
rradius 56.5067 
rwrist -83.2896 
rhand -3.4472 6.223 
rfingers 7.12502 
rthumb 22.2847 -22.5121 
lclavicle 1.74931e-14 2.22639e-14 
lhumerus -23.498 19.78 52.4155 
lradius 68.7751 
lwrist -1.46162 
lhand -8.58024 32.5984 
lfingers 7.12502 
lthumb 17.3505 61.844 
rfemur -19.2412 -18.6255 19.6667 
rtibia 63.6975 
rfoot -20.4436 12.7727 
rtoes -43.5305 
lfemur -66.2095 12.5745 -15.8313 
ltibia 80.882 
lfoot -12.6751 -21.1581 
ltoes -29.4988 
